<?xml version="1.0" standalone="no"?>
<!DOCTYPE svg PUBLIC "-//W3C//DTD SVG 20010904//EN"
 "http://www.w3.org/TR/2001/REC-SVG-20010904/DTD/svg10.dtd">
<svg version="1.0" xmlns="http://www.w3.org/2000/svg"
 width="1132.000000pt" height="530.000000pt" viewBox="0 0 1132.000000 530.000000"
 preserveAspectRatio="xMidYMid meet">

<g transform="translate(0.000000,530.000000) scale(0.100000,-0.100000)"
fill="#000000" stroke="none">
<path d="M840 4891 c0 -353 -2 -400 -16 -405 -10 -4 -14 -15 -12 -33 4 -32 28
-44 28 -13 0 29 23 21 30 -11 l6 -24 13 23 c10 20 10 27 -6 50 -16 25 -18 60
-21 420 -2 229 -7 392 -13 392 -5 0 -9 -163 -9 -399z"/>
<path d="M3550 4764 c0 -4 16 -36 36 -72 l35 -65 -20 -21 c-28 -30 -26 -58 5
-112 20 -33 24 -48 16 -56 -9 -9 -6 -21 10 -46 13 -21 17 -37 11 -41 -6 -3
-10 -13 -10 -21 0 -8 -4 -22 -7 -31 -5 -12 9 -28 53 -60 33 -24 61 -47 61 -51
0 -3 -59 -6 -131 -6 -72 0 -135 -4 -140 -9 -5 -5 1 -40 16 -84 24 -69 26 -91
32 -312 6 -238 6 -238 -15 -244 -19 -5 -22 -12 -22 -59 l0 -54 -45 0 -45 0 0
-129 0 -129 -87 -27 c-49 -14 -111 -33 -139 -42 l-52 -16 -6 -57 c-4 -32 -4
-87 0 -122 l6 -65 -136 -83 c-76 -46 -141 -92 -147 -101 -8 -15 -14 -78 -24
-233 -1 -27 -9 -52 -16 -57 -8 -5 -74 -43 -147 -85 l-133 -76 -182 26 c-100
15 -192 29 -203 31 -14 3 -31 -4 -47 -21 -54 -54 -169 -51 -315 8 -54 22 -100
32 -153 36 -84 5 -83 6 -95 -65 -3 -16 -16 -64 -30 -108 -25 -79 -76 -266 -96
-355 -6 -25 -18 -50 -27 -57 -12 -9 -13 -15 -4 -21 9 -6 9 -19 -1 -57 -7 -30
-15 -45 -20 -37 -11 18 -56 15 -201 -13 -71 -14 -131 -25 -133 -25 -7 0 8 -93
19 -121 10 -25 30 -39 72 -53 10 -3 61 -1 114 5 52 6 97 8 100 5 3 -3 -2 -57
-12 -120 -10 -63 -15 -120 -13 -127 3 -9 18 -13 45 -11 26 2 46 -2 55 -12 18
-17 38 -4 38 26 0 10 12 67 26 128 25 106 27 110 52 110 15 0 45 -7 67 -15 49
-17 284 -20 335 -4 19 7 59 14 89 18 56 6 80 27 39 33 -20 3 -23 8 -20 40 10
113 -80 241 -191 273 -73 21 -160 9 -220 -31 l-39 -25 7 23 c9 29 147 286 191
356 28 43 39 52 62 52 23 0 36 -10 65 -53 21 -30 37 -63 37 -75 0 -15 9 -26
25 -32 29 -11 31 -22 10 -40 -12 -10 -15 -35 -13 -124 l2 -111 5 115 c5 91 9
115 21 117 9 2 40 -36 83 -100 l67 -103 0 -127 0 -127 -30 0 c-26 0 -30 4 -30
26 0 24 -98 199 -107 190 -2 -2 19 -40 46 -83 34 -53 51 -91 51 -111 0 -30 3
-32 34 -32 32 0 34 -2 40 -46 3 -26 6 -93 6 -150 0 -56 3 -105 8 -107 9 -5
129 7 136 13 4 5 26 206 28 263 l1 27 238 0 239 0 -2 263 -3 262 -2 -258 -3
-257 -233 0 -233 0 4 174 4 175 -31 67 c-17 37 -30 67 -29 68 2 1 40 20 86 44
79 41 84 42 89 22 7 -24 13 -25 53 -3 31 18 32 18 47 -4 14 -20 24 -23 84 -23
l69 0 0 50 c0 51 6 60 28 38 9 -9 12 -6 12 14 0 14 -3 39 -6 56 -6 29 -9 30
-69 37 -77 8 -225 -25 -361 -80 -48 -19 -90 -33 -92 -30 -7 7 72 39 194 78
172 56 262 68 505 66 l211 -2 22 27 21 27 85 -10 c46 -6 88 -11 92 -11 3 0 9
-9 13 -19 4 -13 26 -26 63 -38 l57 -18 -55 -3 c-30 -2 -82 2 -116 7 -33 6
-169 14 -302 18 -283 7 -257 25 -212 -142 29 -108 30 -115 30 -352 l0 -243 86
0 c76 0 85 -2 74 -15 -10 -12 -10 -21 -2 -40 11 -23 17 -25 77 -25 l65 0 0
270 0 270 24 0 24 0 -5 -270 -6 -270 57 0 c36 0 69 6 86 17 25 14 29 25 35 77
5 38 23 94 52 155 l44 96 -15 91 c-9 50 -16 94 -16 98 0 3 118 6 263 6 251 0
263 -1 275 -20 10 -17 23 -20 81 -20 l69 0 -2 31 c-1 25 -8 34 -34 45 -65 27
-76 132 -19 168 18 12 231 14 1302 14 866 0 1284 -3 1293 -10 8 -7 12 -7 12 1
0 6 13 11 29 11 20 0 37 -9 55 -31 50 -58 25 -139 -47 -159 -18 -5 -19 -20
-17 -270 0 -145 3 -266 5 -269 3 -2 5 111 5 252 0 225 2 257 15 257 29 0 75
30 90 60 46 89 -11 190 -108 190 -18 0 -38 5 -44 11 -17 17 -155 22 -165 6 -6
-9 -10 -9 -17 1 -6 9 -19 11 -45 7 -20 -4 -42 -3 -49 3 -14 11 -253 9 -281 -3
-16 -7 -18 -5 -14 13 5 19 2 22 -28 22 -23 0 -34 -5 -34 -15 0 -12 -18 -14
-110 -10 -66 2 -110 0 -110 -5 0 -6 -7 -10 -15 -10 -8 0 -15 5 -15 10 0 6 -17
10 -38 10 -21 0 -43 5 -49 11 -8 8 -23 7 -56 -6 -42 -16 -49 -16 -100 -1 -68
20 -77 20 -77 1 0 -9 -9 -15 -25 -15 -16 0 -25 6 -25 15 0 18 -27 19 -67 4
-19 -7 -29 -7 -31 0 -5 15 -28 14 -52 -1 -16 -10 -24 -10 -40 0 -24 15 -50 16
-50 1 0 -6 -17 -9 -42 -7 -36 2 -44 7 -46 26 -3 19 -9 22 -52 22 l-49 0 9 -30
c10 -36 -2 -38 -75 -14 -40 14 -54 15 -83 4 -28 -10 -36 -10 -43 1 -6 10 -15
10 -45 1 -28 -8 -41 -8 -51 0 -10 8 -20 8 -38 -2 -20 -11 -30 -10 -56 0 -27
12 -33 11 -43 -2 -16 -21 -42 -24 -91 -10 -51 15 -55 15 -55 -3 0 -8 -7 -15
-15 -15 -8 0 -15 7 -15 15 0 17 -18 19 -54 6 -17 -7 -26 -7 -29 2 -3 9 -9 9
-25 0 -17 -10 -27 -10 -48 -1 -22 10 -28 10 -32 0 -2 -6 -14 -12 -27 -12 -13
0 -26 -6 -28 -12 -3 -8 -6 -5 -6 6 -1 15 -7 17 -31 14 -16 -3 -30 -2 -30 1 0
6 111 282 116 290 2 1 128 -11 281 -28 153 -17 283 -31 289 -31 6 0 35 -36 64
-80 29 -44 57 -80 61 -80 5 0 117 72 249 160 132 88 244 160 249 160 5 0 94
-38 197 -86 103 -47 194 -82 202 -79 8 3 93 55 188 115 96 61 177 110 181 110
4 0 23 -11 42 -24 124 -82 576 -356 588 -356 8 0 75 14 147 30 l133 30 144
-54 c79 -30 162 -61 184 -70 41 -16 486 -70 533 -64 22 3 34 21 90 138 l64
135 -7 -125 c-12 -234 -56 -492 -126 -732 l-32 -108 -95 0 -95 0 6 -36 c4 -23
0 -50 -9 -73 -11 -25 -14 -51 -9 -89 6 -49 5 -53 -24 -78 -29 -24 -31 -29 -31
-100 0 -87 -33 -219 -63 -252 -17 -18 -31 -22 -84 -22 -56 0 -63 -2 -63 -19 0
-11 9 -23 20 -26 13 -4 20 -15 20 -30 0 -13 4 -26 9 -29 5 -3 7 -25 4 -47 -7
-50 16 -101 53 -118 38 -17 105 -13 140 8 42 25 61 80 44 122 -17 40 -46 38
-67 -6 -22 -46 -48 -46 -70 0 -14 30 -22 35 -50 35 -30 0 -33 3 -33 30 l0 30
310 0 310 0 0 -24 c0 -14 4 -27 9 -30 5 -3 6 -25 4 -49 -10 -87 42 -134 137
-125 59 6 86 27 101 77 23 79 -34 127 -68 56 -22 -46 -48 -46 -70 0 -14 29
-22 35 -49 35 -33 0 -48 18 -38 45 5 13 56 15 370 15 l364 0 0 -24 c0 -14 4
-27 9 -30 5 -3 6 -26 3 -51 -6 -55 10 -91 50 -111 56 -29 153 -10 178 35 11
22 13 80 4 105 -11 28 -43 18 -61 -19 -22 -46 -48 -46 -70 0 -14 29 -22 35
-49 35 -37 0 -48 11 -39 40 6 19 16 20 316 20 l309 0 0 -24 c0 -14 4 -27 8
-30 5 -3 7 -29 5 -58 -4 -45 0 -58 20 -82 44 -54 175 -45 207 13 11 22 13 80
4 105 -11 28 -43 18 -61 -19 -10 -21 -24 -35 -35 -35 -11 0 -25 14 -35 35 -14
30 -22 35 -50 35 -30 0 -33 3 -33 30 l0 30 134 0 c148 0 166 3 166 31 0 16 -8
19 -55 19 l-55 0 0 295 0 295 28 0 c82 0 96 8 135 80 20 37 37 73 37 79 0 6
-20 38 -45 72 -44 60 -45 62 -45 140 l0 78 43 24 c23 13 70 34 105 47 78 28
83 50 11 50 -40 0 -52 -4 -56 -17 -4 -15 -29 -31 -94 -61 -3 -1 -6 46 -7 104
-1 59 -4 109 -6 112 -3 2 -20 -10 -38 -27 -18 -16 -57 -51 -85 -77 -57 -50
-62 -61 -35 -66 12 -3 10 -5 -8 -9 -14 -3 -40 -1 -58 3 -27 7 -32 13 -32 39 0
44 15 67 88 135 l66 62 -92 46 c-51 25 -92 48 -92 49 0 2 11 31 25 65 14 34
25 66 25 72 0 6 -29 29 -65 51 -36 23 -65 42 -65 43 0 1 9 22 21 45 22 46 21
68 -1 26 -7 -14 -17 -25 -22 -25 -4 0 -8 43 -8 96 0 80 3 99 17 111 17 13 16
14 -5 8 -17 -5 -22 -2 -22 13 0 18 -11 20 -147 26 -129 6 -151 10 -170 28 -21
19 -27 20 -145 10 -68 -5 -127 -6 -131 -2 -5 4 -11 26 -14 47 l-5 40 -61 7
c-33 3 -93 6 -133 6 -74 0 -81 3 -90 42 -8 34 -9 41 -18 65 -5 16 1 33 20 62
30 46 30 46 -26 142 -39 67 -42 69 -80 69 -68 0 -70 2 -70 100 l0 88 -56 50
-57 49 -63 -14 -64 -15 -88 81 -89 81 -149 -34 -149 -33 -50 29 c-27 16 -70
39 -95 50 -25 11 -61 28 -81 37 l-36 16 59 225 c32 124 72 278 89 343 l32 117
216 0 c156 0 220 3 229 12 15 15 16 152 2 179 -10 18 -24 19 -245 19 -129 0
-235 -2 -235 -3 0 -2 7 -19 16 -36 37 -74 -8 -150 -93 -158 -42 -5 -53 -1 -81
22 -17 15 -35 40 -40 57 -6 25 -24 -24 -121 -329 -63 -197 -115 -359 -116
-361 -1 -1 -58 7 -126 18 -257 41 -746 44 -1032 6 -383 -52 -755 -150 -1097
-288 -176 -71 -350 -155 -350 -167 0 -6 2 -11 3 -11 2 0 60 26 128 59 437 207
924 343 1426 396 224 24 607 29 778 11 77 -9 168 -21 202 -27 57 -10 62 -13
57 -33 -4 -19 4 -24 73 -50 43 -16 104 -42 137 -58 61 -31 75 -28 76 14 0 9 4
19 9 22 12 8 233 -102 227 -113 -3 -5 -23 -12 -43 -15 -78 -14 -79 -15 -37
-49 183 -148 317 -334 399 -552 36 -94 34 -98 -34 -129 -32 -14 -64 -26 -70
-26 -6 0 -61 16 -122 36 l-111 36 -260 -156 -260 -156 -140 -23 -141 -24 -144
125 -144 124 -371 -32 -372 -31 -100 -75 c-56 -40 -108 -74 -116 -74 -9 0
-160 29 -335 64 l-320 65 -220 -119 -220 -119 -43 42 c-37 37 -51 43 -108 52
-36 6 -64 14 -62 18 2 5 -8 15 -22 22 -21 12 -28 12 -47 -1 -16 -10 -39 -12
-80 -8 -55 5 -73 0 -332 -94 l-273 -100 -67 18 -66 19 -80 -79 -80 -80 -85 0
-85 1 114 110 c220 214 494 445 512 433 6 -3 13 2 15 12 8 30 295 234 503 357
60 36 97 63 87 65 -9 2 -32 -6 -51 -18 -19 -11 -40 -20 -47 -19 -27 3 -40 -1
-35 -13 4 -12 -102 -88 -123 -88 -4 0 -10 -4 -12 -8 -1 -5 -39 -33 -83 -62
-263 -176 -597 -453 -825 -684 l-85 -86 -105 0 -105 1 120 117 c310 303 656
575 984 775 l134 82 -232 3 c-196 2 -231 5 -231 17 0 13 58 15 444 15 l444 0
10 28 c5 15 13 35 17 45 7 16 -12 17 -314 17 l-321 0 0 65 0 64 323 3 c177 2
327 0 333 -4 8 -6 184 59 199 73 2 3 -47 22 -110 43 l-115 37 0 103 0 103 -52
6 c-29 3 -185 4 -345 2 -215 -2 -293 0 -293 9 0 6 11 29 23 51 l23 40 303 5
303 5 29 79 c16 43 26 83 23 87 -3 5 -21 9 -40 9 -19 0 -34 5 -34 11 0 7 -10
9 -27 4 -15 -3 -50 -8 -78 -10 -38 -3 -44 -2 -27 5 24 10 26 17 12 40 -8 12
-11 12 -28 -3 -10 -9 -21 -17 -24 -17 -3 0 -11 37 -18 83 l-11 83 -107 97
-107 97 -162 0 -163 0 6 -27 c4 -16 11 -38 15 -50 16 -42 -19 -26 -47 23 l-27
45 22 23 c29 31 27 54 -11 122 -29 50 -58 80 -58 58z m495 -299 l90 -84 -173
-3 -173 -3 -32 58 c-17 31 -37 57 -44 57 -7 0 -13 6 -13 14 0 8 -3 21 -6 30
-5 14 10 16 127 16 l134 -1 90 -84z m-345 -477 c0 -6 -11 -31 -25 -55 -24 -41
-28 -43 -70 -43 -25 0 -45 5 -45 11 0 6 12 30 26 55 24 41 28 44 70 44 27 0
44 -5 44 -12z m4737 -1495 c-3 -10 -5 -4 -5 12 0 17 2 24 5 18 2 -7 2 -21 0
-30z m1 -48 c-3 -3 -9 2 -12 12 -6 14 -5 15 5 6 7 -7 10 -15 7 -18z m317 -74
c3 -5 1 -12 -5 -16 -5 -3 -10 -21 -11 -38 0 -30 -1 -30 -11 -10 -18 36 7 95
27 64z m-5797 -419 c-10 -2 -27 -2 -38 0 -18 3 -17 6 13 44 l32 42 5 -42 c4
-34 2 -42 -12 -44z m1092 -82 c0 -6 -24 -10 -52 -9 -42 1 -48 3 -28 9 36 12
80 12 80 0z m4211 -42 c-4 -35 -6 -38 -9 -15 -3 26 3 57 10 57 2 0 1 -19 -1
-42z m496 20 c-3 -8 -6 -5 -6 6 -1 11 2 17 5 13 3 -3 4 -12 1 -19z m697 -17
c5 -8 -95 -23 -103 -15 -7 6 43 23 71 23 15 1 29 -3 32 -8z m74 -33 c17 -17
15 -29 -3 -21 -9 3 -25 -3 -35 -12 -11 -10 -20 -13 -20 -8 0 6 7 16 15 23 8 7
12 16 9 21 -8 13 20 11 34 -3z m-770 -23 c-3 -3 -9 2 -12 12 -6 14 -5 15 5 6
7 -7 10 -15 7 -18z m612 -19 c34 -41 36 -42 62 -27 30 18 52 6 26 -13 -10 -7
-16 -15 -13 -17 2 -3 -8 -5 -23 -4 -21 0 -28 -5 -30 -23 -2 -13 3 -25 12 -28
23 -9 20 -34 -4 -34 -11 0 -20 -4 -20 -10 0 -5 -5 -10 -11 -10 -5 0 -7 5 -4
10 3 6 -1 10 -10 10 -12 0 -14 4 -5 19 18 34 11 66 -20 96 l-29 28 -11 -27
c-5 -15 -10 -38 -10 -52 0 -13 -5 -24 -11 -24 -18 0 -2 87 22 121 11 16 26 29
32 28 7 0 28 -19 47 -43z m-312 -73 c-3 -35 2 -54 12 -48 6 3 10 1 10 -4 0
-14 -13 -14 -28 1 -14 14 -16 68 -2 68 5 0 9 -8 8 -17z m-468 -53 c0 -5 -7 -7
-15 -4 -8 4 -15 8 -15 10 0 2 7 4 15 4 8 0 15 -4 15 -10z m980 -10 c0 -18 -65
-83 -97 -96 -34 -15 -90 -18 -118 -8 -27 11 4 23 35 14 40 -12 95 12 136 59
38 43 44 47 44 31z m-7820 -80 c0 -5 -4 -10 -10 -10 -5 0 -10 5 -10 10 0 6 5
10 10 10 6 0 10 -4 10 -10z m-50 -20 c0 -5 -4 -10 -10 -10 -5 0 -10 5 -10 10
0 6 5 10 10 10 6 0 10 -4 10 -10z m95 -9 c-4 -13 0 -23 11 -29 15 -8 15 -9 -1
-15 -11 -5 -14 -13 -10 -27 4 -11 2 -20 -4 -20 -6 0 -11 4 -11 8 0 5 -13 7
-30 4 -21 -3 -38 3 -58 20 l-28 23 28 24 c20 16 37 22 58 19 17 -3 30 -1 30 4
0 4 5 8 11 8 6 0 8 -8 4 -19z m-95 -81 c0 -5 -4 -10 -10 -10 -5 0 -10 5 -10
10 0 6 5 10 10 10 6 0 10 -4 10 -10z m50 -20 c0 -5 -4 -10 -10 -10 -5 0 -10 5
-10 10 0 6 5 10 10 10 6 0 10 -4 10 -10z m6154 -35 c31 -14 56 -20 56 -15 0 7
80 9 227 8 l227 -3 28 -114 c15 -62 33 -121 41 -130 18 -21 105 -172 109 -190
2 -10 -14 -14 -64 -17 -65 -4 -68 -3 -68 18 -1 20 -17 30 -113 70 -62 26 -216
92 -343 146 l-231 98 23 29 c13 16 29 51 36 77 6 26 13 48 14 48 1 0 27 -11
58 -25z m1094 -15 c48 0 82 -4 82 -10 0 -6 -107 -10 -300 -10 -273 0 -300 2
-300 17 0 15 19 16 218 10 119 -4 254 -7 300 -7z m182 -10 c0 -5 -16 -10 -35
-10 -19 0 -35 5 -35 10 0 6 16 10 35 10 19 0 35 -4 35 -10z m289 -7 c-11 -12
-15 -79 -19 -292 l-5 -276 -42 -3 c-37 -3 -43 0 -48 20 -18 79 -25 174 -25
331 0 140 -3 184 -15 207 l-16 30 92 0 c84 0 90 -1 78 -17z m201 -278 l0 -296
-97 3 -98 3 0 267 0 266 24 26 c22 23 32 26 98 26 l73 0 0 -295z m-362 155 l0
-55 -13 50 c-7 28 -13 66 -13 85 l0 35 13 -30 c8 -16 14 -55 13 -85z m-1181
-157 c10 -10 13 -14 5 -8 -10 7 -22 0 -43 -25 -58 -69 -58 -73 5 -65 79 10 67
-17 -15 -34 l-61 -12 7 -35 c3 -20 8 -41 11 -48 3 -8 -2 -16 -11 -19 -11 -5
-20 4 -32 28 -9 19 -20 35 -23 35 -4 0 -28 -23 -54 -50 -40 -43 -50 -49 -66
-40 -23 12 -27 22 -7 14 12 -4 87 74 87 91 0 3 -25 3 -56 -1 -45 -5 -56 -4
-52 7 2 7 22 17 44 21 91 18 87 15 79 56 -4 20 -12 40 -17 43 -6 4 -1 12 12
19 12 6 23 10 24 8 1 -2 9 -20 19 -40 l17 -38 42 47 c24 25 42 50 41 55 -5 14
24 9 44 -9z m-327 -58 c0 -20 -5 -25 -25 -25 -20 0 -25 5 -25 25 0 20 5 25 25
25 20 0 25 -5 25 -25z"/>
<path d="M9325 1750 c10 -11 23 -20 28 -20 6 0 2 9 -8 20 -10 11 -23 20 -28
20 -6 0 -2 -9 8 -20z"/>
<path d="M8220 4551 l0 -101 29 0 c39 0 506 28 598 36 l73 6 3 -209 2 -208 3
207 c2 206 2 207 25 210 19 3 22 10 25 56 3 47 1 53 -20 60 -13 5 -142 14
-288 21 -146 6 -307 14 -357 18 l-93 6 0 -102z"/>
<path d="M3491 4324 c-23 -29 -26 -40 -12 -49 11 -6 51 42 51 61 0 22 -17 16
-39 -12z"/>
<path d="M4293 4262 c-10 -7 -10 -12 0 -27 15 -20 31 -15 47 16 9 16 7 19 -12
19 -13 0 -29 -4 -35 -8z"/>
<path d="M4351 4241 l-21 -29 35 -4 c31 -3 35 -1 35 18 0 12 -6 27 -14 33 -11
9 -18 6 -35 -18z"/>
<path d="M807 4153 c-9 -25 -16 -48 -14 -50 2 -2 12 17 22 42 9 26 15 48 13
50 -2 2 -12 -17 -21 -42z"/>
<path d="M852 4195 c-2 -5 -2 -110 -2 -231 1 -190 -2 -222 -15 -227 -9 -4 -15
-19 -15 -42 0 -34 1 -35 40 -35 36 0 40 3 40 24 0 35 -10 56 -26 56 -11 0 -14
43 -17 233 -1 127 -4 228 -5 222z m8 -477 c0 7 5 10 10 7 8 -5 7 -11 -1 -21
-14 -17 -29 -9 -29 14 0 15 2 15 10 2 7 -11 10 -11 10 -2z"/>
<path d="M881 4195 c-1 -5 37 -109 84 -230 56 -145 82 -222 75 -229 -6 -6 -10
-25 -10 -43 0 -32 1 -33 40 -33 36 0 40 3 40 24 0 37 -10 56 -30 56 -13 0 -27
24 -55 98 -94 242 -144 366 -144 357z m189 -477 c0 7 5 10 10 7 8 -5 7 -11 -1
-21 -14 -17 -29 -9 -29 14 0 15 2 15 10 2 7 -11 10 -11 10 -2z"/>
<path d="M719 3919 c-51 -136 -69 -173 -86 -180 -18 -7 -23 -16 -23 -44 0 -34
1 -35 40 -35 37 0 40 2 40 27 0 14 -6 34 -14 42 -12 14 -5 39 50 185 35 93 63
171 60 173 -2 2 -32 -73 -67 -168z m-65 -195 c13 -5 14 -9 5 -20 -13 -16 -29
-9 -29 12 0 16 2 16 24 8z"/>
<path d="M8890 3705 c0 -8 5 -15 10 -15 6 0 10 7 10 15 0 8 -4 15 -10 15 -5 0
-10 -7 -10 -15z"/>
<path d="M8951 3704 c0 -11 3 -14 6 -6 3 7 2 16 -1 19 -3 4 -6 -2 -5 -13z"/>
<path d="M8856 3638 c-3 -7 -9 -28 -15 -47 -6 -19 -9 -36 -7 -39 9 -8 26 9 26
26 0 9 7 29 14 45 13 24 13 27 0 27 -8 0 -16 -6 -18 -12z"/>
<path d="M8904 3565 c-8 -19 12 -36 33 -28 19 7 12 37 -10 41 -9 2 -20 -4 -23
-13z"/>
<path d="M580 3431 c0 -5 -10 -11 -22 -13 -20 -3 -23 -10 -26 -50 -3 -41 0
-48 16 -48 13 0 26 16 42 50 23 50 24 50 72 50 l48 0 -16 -37 c-9 -21 -18 -44
-21 -50 -4 -9 6 -13 33 -13 37 0 40 3 61 50 22 50 22 50 68 50 43 0 46 -1 39
-22 -3 -13 -13 -35 -21 -50 l-14 -28 39 0 c37 0 40 3 62 50 23 50 24 50 71 50
l48 0 -19 -46 c-11 -25 -20 -48 -20 -50 0 -2 17 -4 38 -4 35 0 38 4 58 48 17
39 18 50 8 60 -16 15 -544 18 -544 3z"/>
<path d="M2175 3372 c-6 -5 -53 -28 -106 -51 l-97 -43 12 -30 c8 -23 12 -26
15 -12 8 46 49 66 132 65 l57 0 4 40 c4 39 0 46 -17 31z"/>
<path d="M4290 3221 c0 -12 6 -21 16 -21 9 0 14 7 12 17 -5 25 -28 28 -28 4z"/>
<path d="M300 3211 c0 -5 7 -14 16 -19 13 -7 15 -26 12 -113 -3 -58 -8 -111
-13 -119 -5 -9 -4 -15 3 -18 7 -2 12 -11 12 -19 0 -9 -6 -13 -14 -10 -21 8
-33 -111 -15 -144 14 -26 13 -94 -3 -122 -6 -13 -4 -41 8 -93 l18 -74 533 0
533 0 0 170 c0 144 -2 170 -15 170 -11 0 -15 11 -15 43 0 37 4 46 25 55 14 6
25 16 25 22 0 7 -6 8 -19 0 -28 -15 -33 -12 -19 10 7 11 18 20 25 20 7 0 13 5
13 10 0 6 -4 10 -9 10 -5 0 -7 9 -4 20 4 16 2 19 -12 14 -15 -6 -16 0 -10 73
l7 79 -35 11 c-21 6 -40 7 -51 1 -9 -5 -213 -9 -473 -8 -443 0 -457 1 -490 21
-18 11 -33 16 -33 10z m331 -440 c-9 -28 -24 26 -15 56 l8 28 6 -35 c3 -19 4
-41 1 -49z m24 -11 c3 -5 1 -10 -4 -10 -6 0 -11 5 -11 10 0 6 2 10 4 10 3 0 8
-4 11 -10z"/>
<path d="M2005 3196 c11 -9 27 -23 37 -30 16 -14 28 -11 28 6 0 4 -7 8 -15 8
-9 0 -28 7 -43 16 -25 15 -26 15 -7 0z"/>
<path d="M1962 3194 c5 -17 84 -101 107 -114 27 -14 94 -13 109 2 7 7 12 34
12 60 0 46 -1 48 -27 47 -16 -1 -39 -4 -52 -8 -21 -6 -22 -8 -7 -20 23 -19 21
-58 -4 -66 -24 -8 -50 10 -50 34 0 12 -2 13 -9 3 -6 -10 -18 -2 -45 30 -21 24
-36 38 -34 32z"/>
<path d="M2082 3129 c2 -6 8 -10 13 -10 5 0 11 4 13 10 2 6 -4 11 -13 11 -9 0
-15 -5 -13 -11z"/>
<path d="M1846 3101 c-10 -11 -49 -27 -89 -36 -146 -35 -149 -39 -237 -260
-66 -164 -71 -181 -60 -209 12 -32 31 -37 92 -26 28 6 52 9 54 8 1 -2 -11 -55
-27 -118 -15 -63 -28 -118 -29 -121 0 -3 28 -6 63 -6 48 -1 82 -9 149 -37 91
-38 181 -53 241 -42 l35 7 -19 49 c-37 99 -72 90 361 90 l380 0 0 108 c0 105
1 109 24 120 28 12 34 61 7 63 -10 0 -11 2 -3 6 20 8 14 23 -10 24 -13 0 -17
3 -10 6 6 2 12 12 12 20 0 11 -7 14 -27 9 l-28 -6 22 18 c15 13 20 26 16 41
-3 11 -10 18 -15 14 -7 -4 -8 16 -4 61 8 71 6 74 -54 68 -8 -1 -67 -2 -130 -2
-236 1 -356 5 -375 13 -16 7 -17 7 -5 -2 12 -8 6 -11 -27 -11 -37 0 -48 6 -83
43 -26 27 -39 49 -36 61 4 16 0 18 -30 13 -19 -3 -34 -2 -34 2 0 5 -21 17 -47
27 -27 11 -51 20 -54 22 -3 1 -13 -6 -23 -17z m64 -201 c0 -12 -127 -12 -155
0 -13 6 9 9 68 9 52 1 87 -3 87 -9z m560 -120 c-14 -4 -36 -8 -50 -9 -20 -1
-22 1 -10 9 8 5 31 9 50 9 32 -1 33 -2 10 -9z m81 -27 c12 -14 12 -15 -1 -11
-8 3 -23 -2 -33 -11 -18 -15 -18 -14 -6 12 14 31 21 33 40 10z m-153 -2 c-2
-5 9 -20 23 -33 20 -19 31 -23 49 -16 13 5 25 6 28 3 9 -8 -17 -30 -36 -30
-10 0 -18 -9 -20 -22 -2 -13 1 -23 7 -23 6 0 11 -7 11 -16 0 -8 -4 -13 -9 -10
-5 3 -14 -1 -21 -9 -17 -20 -42 3 -29 27 15 28 10 56 -13 73 -21 14 -24 14
-35 -2 -7 -9 -13 -28 -13 -42 0 -16 -3 -22 -10 -15 -13 13 4 81 26 105 17 19
46 26 42 10z m-225 -133 c9 -6 9 -8 0 -8 -19 0 -35 38 -26 63 7 19 8 18 11
-13 2 -19 9 -38 15 -42z m394 -39 c-26 -36 -69 -59 -114 -59 -23 0 -44 4 -47
9 -3 5 16 8 44 8 45 -2 53 2 87 35 40 40 55 44 30 7z"/>
<path d="M2380 2726 c0 -2 8 -10 18 -17 15 -13 16 -12 3 4 -13 16 -21 21 -21
13z"/>
<path d="M3820 3094 c0 -17 22 -14 28 4 2 7 -3 12 -12 12 -9 0 -16 -7 -16 -16z"/>
<path d="M4232 3088 c3 -7 13 -15 24 -17 16 -3 17 -1 5 13 -16 19 -34 21 -29
4z"/>
<path d="M9930 3080 c0 -14 30 -27 84 -34 52 -6 86 -28 86 -55 0 -9 7 -3 15
13 17 32 8 46 -27 46 -10 0 -41 9 -70 20 -58 22 -88 25 -88 10z"/>
<path d="M9970 3020 c0 -11 2 -20 4 -20 2 0 6 9 9 20 3 11 1 20 -4 20 -5 0 -9
-9 -9 -20z"/>
<path d="M10170 3017 c0 -9 -6 -26 -12 -37 -11 -17 -9 -23 9 -42 19 -19 23
-19 28 -6 4 9 0 36 -9 60 -8 23 -15 35 -16 25z"/>
<path d="M3684 3009 c-8 -14 11 -33 25 -25 11 7 4 36 -9 36 -5 0 -12 -5 -16
-11z"/>
<path d="M4060 2966 c0 -8 7 -16 15 -20 17 -6 18 -4 9 18 -8 20 -24 21 -24 2z"/>
<path d="M3880 2935 c-11 -13 -10 -18 6 -30 25 -19 28 -18 48 3 15 18 15 19
-9 30 -32 15 -30 15 -45 -3z"/>
<path d="M4228 2908 c-33 -11 -35 -19 -9 -35 21 -13 32 -6 44 30 7 19 4 20
-35 5z"/>
<path d="M4100 2805 c0 -10 7 -15 18 -13 21 4 19 22 -2 26 -10 2 -16 -3 -16
-13z"/>
<path d="M10267 2771 c-34 -38 -67 -119 -67 -166 0 -76 -134 -112 -169 -46 -6
10 -14 58 -17 105 -8 93 -18 104 -27 27 -8 -68 6 -155 47 -290 19 -64 38 -134
41 -155 l7 -39 25 29 c15 16 39 43 55 60 37 39 57 114 63 229 5 122 35 214 80
254 29 25 32 31 17 31 -11 0 -36 -18 -55 -39z"/>
<path d="M3720 2765 c0 -8 7 -15 15 -15 8 0 15 7 15 15 0 8 -7 15 -15 15 -8 0
-15 -7 -15 -15z"/>
<path d="M3840 2725 c0 -8 9 -15 20 -15 11 0 20 7 20 15 0 8 -9 15 -20 15 -11
0 -20 -7 -20 -15z"/>
<path d="M3997 2693 c-11 -10 13 -32 29 -26 11 4 12 9 3 19 -13 15 -22 18 -32
7z"/>
<path d="M10410 2528 c-12 -40 -30 -82 -40 -93 -10 -11 -34 -57 -53 -103 -40
-93 -70 -131 -179 -227 -89 -78 -86 -73 -107 -210 -23 -141 -59 -742 -66
-1065 -1 -52 -5 -126 -10 -163 -8 -73 -20 -88 -80 -103 -16 -4 -32 -10 -35
-13 -3 -3 -14 -11 -25 -17 -11 -6 -21 -19 -23 -28 -3 -14 11 -16 127 -16 144
0 138 -4 139 75 1 22 13 87 27 145 50 201 64 266 90 415 14 83 28 166 31 185
6 35 6 34 54 -60 52 -104 275 -443 293 -448 16 -4 67 -125 67 -159 0 -33 -44
-103 -64 -103 -8 0 -16 -6 -18 -13 -10 -27 4 -37 52 -37 l49 0 65 84 c37 46
66 88 66 94 0 5 -7 15 -16 23 -20 16 -97 169 -90 177 3 3 2 10 -3 16 -5 6 -32
69 -60 139 -59 148 -112 258 -148 306 l-26 33 46 237 c65 329 63 306 28 459
-43 179 -62 317 -63 440 0 56 -1 102 -3 102 -2 0 -13 -33 -25 -72z"/>
<path d="M3624 2579 c-9 -15 12 -33 30 -26 9 4 16 13 16 22 0 17 -35 21 -46 4z"/>
<path d="M4261 2413 c-23 -19 -21 -53 3 -53 22 0 48 26 45 45 -5 26 -22 29
-48 8z"/>
<path d="M1540 2305 c0 -12 14 -15 64 -15 48 0 88 -9 162 -36 109 -39 219 -54
268 -35 45 18 22 25 -72 22 -90 -2 -136 9 -242 58 -57 26 -180 30 -180 6z"/>
<path d="M2682 2153 c26 -3 38 -10 41 -24 4 -15 4 -14 3 3 -1 20 -7 23 -41 24
l-40 1 37 -4z"/>
<path d="M2731 2084 c0 -11 3 -14 6 -6 3 7 2 16 -1 19 -3 4 -6 -2 -5 -13z"/>
<path d="M4025 2070 c-3 -5 -1 -10 4 -10 6 0 11 5 11 10 0 6 -2 10 -4 10 -3 0
-8 -4 -11 -10z"/>
<path d="M4150 2070 c0 -5 5 -10 11 -10 5 0 7 5 4 10 -3 6 -8 10 -11 10 -2 0
-4 -4 -4 -10z"/>
<path d="M6666 2071 c-3 -5 -23 -7 -44 -4 -66 9 -100 -55 -57 -105 22 -25 24
-25 25 -6 0 11 -5 25 -11 31 -14 14 -3 49 17 57 41 16 68 -32 42 -74 -18 -29
1 -39 23 -11 21 25 24 57 9 81 -7 11 -5 17 7 21 11 4 13 8 6 12 -7 4 -14 3
-17 -2z"/>
<path d="M4047 2052 c-21 -23 -22 -75 -2 -92 21 -17 32 -4 17 20 -17 28 -15
48 8 60 14 8 26 8 40 0 21 -11 27 -44 10 -55 -13 -8 -13 -45 -1 -45 15 0 41
42 41 67 0 53 -78 84 -113 45z"/>
<path d="M2741 2044 c0 -11 3 -14 6 -6 3 7 2 16 -1 19 -3 4 -6 -2 -5 -13z"/>
<path d="M4262 2048 c-19 -19 -15 -66 7 -78 13 -7 365 -10 1068 -10 933 0
1051 2 1071 16 26 18 28 46 6 68 -14 14 -125 16 -1078 16 -813 0 -1065 -3
-1074 -12z m2141 -19 c6 -9 7 -24 4 -33 -6 -15 -94 -16 -1065 -16 -1056 0
-1082 1 -1082 31 0 4 7 15 16 23 14 15 121 16 1066 14 954 -3 1052 -4 1061
-19z"/>
<path d="M2751 2004 c0 -11 3 -14 6 -6 3 7 2 16 -1 19 -3 4 -6 -2 -5 -13z"/>
<path d="M4080 2010 c0 -5 5 -10 10 -10 6 0 10 5 10 10 0 6 -4 10 -10 10 -5 0
-10 -4 -10 -10z"/>
<path d="M2761 1964 c0 -11 3 -14 6 -6 3 7 2 16 -1 19 -3 4 -6 -2 -5 -13z"/>
<path d="M4020 1940 c0 -5 5 -10 10 -10 6 0 10 5 10 10 0 6 -4 10 -10 10 -5 0
-10 -4 -10 -10z"/>
<path d="M4150 1939 c0 -5 5 -7 10 -4 6 3 10 8 10 11 0 2 -4 4 -10 4 -5 0 -10
-5 -10 -11z"/>
<path d="M6540 1940 c0 -5 5 -10 10 -10 6 0 10 5 10 10 0 6 -4 10 -10 10 -5 0
-10 -4 -10 -10z"/>
<path d="M6670 1939 c0 -5 5 -7 10 -4 6 3 10 8 10 11 0 2 -4 4 -10 4 -5 0 -10
-5 -10 -11z"/>
<path d="M4280 1928 c0 -15 -13 -18 -82 -20 -54 -2 -83 -7 -86 -15 -3 -10 61
-13 297 -13 166 0 301 -3 301 -6 0 -3 -22 -31 -50 -63 -27 -32 -50 -65 -50
-74 0 -9 36 -46 80 -84 l80 -68 -92 -6 c-51 -4 -148 -7 -215 -8 l-122 -1 -4
53 -3 52 -2 -52 -2 -53 -38 0 c-44 0 -62 -14 -62 -48 0 -20 -4 -23 -22 -19
-13 3 -40 9 -60 12 l-38 7 0 -81 0 -81 58 -2 c148 -4 629 5 643 13 13 7 15 22
11 91 l-4 83 28 -26 c133 -119 173 -149 196 -149 19 0 40 17 82 64 31 35 56
71 56 79 0 9 -82 86 -182 173 -101 86 -192 165 -203 175 -19 19 -9 19 398 19
l417 0 3 -257 2 -258 3 258 2 257 475 0 475 0 2 -257 c2 -288 6 -259 10 70 l3
217 -74 0 c-59 0 -77 4 -87 18 -13 16 -13 16 -14 0 0 -22 -20 -24 -20 -2 0 8
-5 12 -10 9 -6 -4 -8 -11 -5 -16 4 -5 -33 -9 -89 -9 -53 0 -95 3 -95 8 4 21
-3 24 -16 6 -14 -19 -14 -19 -15 1 -1 19 -1 19 -14 3 -18 -25 -186 -27 -186
-3 0 21 -18 19 -23 -2 -4 -17 -5 -17 -6 0 -1 21 -21 23 -21 2 0 -12 -17 -15
-90 -15 -73 0 -90 3 -90 15 0 21 -20 19 -20 -2 -1 -16 -2 -16 -15 1 -13 18
-20 15 -16 -6 0 -5 -42 -8 -95 -8 -56 0 -93 4 -89 9 3 5 1 12 -5 16 -5 3 -10
-1 -10 -9 0 -22 -20 -20 -20 2 -1 16 -1 16 -14 0 -11 -15 -29 -18 -100 -18
-74 0 -86 2 -86 17 0 15 -2 14 -15 -3 -13 -17 -14 -17 -15 -1 0 21 -20 23 -20
2 0 -12 -17 -15 -90 -15 -73 0 -90 3 -90 15 0 8 -4 15 -10 15 -5 0 -10 -7 -10
-16 0 -8 -5 -12 -10 -9 -6 4 -8 11 -5 16 4 5 1 9 -4 9 -6 0 -11 -7 -11 -15 0
-24 -168 -22 -186 3 -13 16 -13 16 -14 0 0 -22 -20 -24 -20 -2 0 8 -5 12 -10
9 -6 -4 -8 -11 -5 -16 4 -5 -33 -9 -89 -9 -84 0 -96 2 -96 17 0 15 -2 14 -15
-3 -13 -17 -14 -17 -15 -1 0 21 -20 23 -20 2 0 -12 -17 -15 -90 -15 -73 0 -90
3 -90 15 0 8 -4 15 -10 15 -5 0 -9 -3 -9 -7 4 -22 -3 -25 -16 -7 -13 17 -14
17 -15 2z"/>
<path d="M2616 1844 c-3 -9 -6 -18 -6 -20 0 -2 27 -4 59 -4 55 0 71 8 71 36 0
2 -27 4 -59 4 -44 0 -60 -4 -65 -16z"/>
<path d="M4110 1851 c0 -5 27 -14 59 -19 33 -6 79 -21 103 -33 l43 -21 -25 27
c-14 15 -37 33 -52 41 -30 15 -128 19 -128 5z"/>
<path d="M3840 1750 c-26 -48 85 -84 114 -37 9 15 7 22 -13 38 -31 26 -87 25
-101 -1z"/>
<path d="M1109 1743 c-24 -4 -25 -6 -15 -37 l10 -33 58 15 c44 11 58 19 58 33
0 12 5 16 14 13 8 -3 17 -1 21 5 6 11 -87 13 -146 4z"/>
<path d="M4172 1738 c3 -7 13 -15 24 -16 10 -2 24 -9 29 -15 8 -10 72 -37 86
-37 2 0 4 18 4 40 l1 40 -74 0 c-54 0 -73 -3 -70 -12z"/>
<path d="M3553 1710 c-108 -25 -193 -128 -193 -233 l0 -42 65 3 c65 4 65 4 76
-27 10 -29 34 -45 93 -65 11 -4 41 1 68 11 36 13 51 25 63 50 15 31 19 33 70
33 50 0 55 -2 56 -22 1 -14 5 -7 11 18 25 102 -61 235 -173 268 -56 17 -85 18
-136 6z m109 -225 c8 -18 9 -35 2 -53 -8 -23 -15 -27 -49 -27 -32 0 -42 5 -54
26 -13 24 -13 29 2 53 25 37 82 37 99 1z"/>
<path d="M3570 1440 c0 -5 5 -10 11 -10 5 0 7 5 4 10 -3 6 -8 10 -11 10 -2 0
-4 -4 -4 -10z"/>
<path d="M3907 1473 c1 -49 2 -91 3 -95 0 -5 33 -8 74 -8 l74 0 6 33 c3 17 2
54 -2 82 l-7 49 -60 13 c-97 20 -91 25 -88 -74z"/>
<path d="M3090 1210 c0 -5 16 -10 35 -10 19 0 35 5 35 10 0 6 -16 10 -35 10
-19 0 -35 -4 -35 -10z"/>
<path d="M4060 1210 c0 -5 14 -10 30 -10 17 0 30 5 30 10 0 6 -13 10 -30 10
-16 0 -30 -4 -30 -10z"/>
<path d="M5610 1210 c0 -5 16 -10 35 -10 19 0 35 5 35 10 0 6 -16 10 -35 10
-19 0 -35 -4 -35 -10z"/>
<path d="M6580 1210 c0 -5 16 -10 36 -10 21 0 33 4 29 10 -3 6 -19 10 -36 10
-16 0 -29 -4 -29 -10z"/>
<path d="M2244 1059 c-4 -7 -22 -9 -50 -4 l-44 6 0 -60 0 -61 150 0 c83 0 150
3 150 8 -1 18 -20 32 -75 53 -32 12 -69 32 -82 45 -26 26 -38 30 -49 13z"/>
<path d="M1255 1030 c-9 -10 -33 -24 -51 -30 -26 -9 -34 -17 -34 -36 0 -24 1
-24 104 -24 63 0 107 4 111 11 10 15 -4 81 -16 73 -5 -3 -21 1 -34 10 -32 21
-58 20 -80 -4z"/>
</g>
</svg>
